<svg width="28.000000" height="28.000000" viewBox="0 0 28 28" fill="none" xmlns="http://www.w3.org/2000/svg" xmlns:xlink="http://www.w3.org/1999/xlink">
	<desc>
			Created with Pixso.
	</desc>
	<defs/>
	<path id="Vector" d="M24.88 0L3.11 0C1.39 0 0 1.4 0 3.11L0 24.88C0 26.6 1.39 28 3.11 28L14 28L14 17.11L10.88 17.11L10.88 13.26L14 13.26L14 10.07C14 6.7 15.88 4.34 19.85 4.34L22.66 4.34L22.66 8.39L20.8 8.39C19.25 8.39 18.66 9.55 18.66 10.63L18.66 13.26L22.66 13.26L21.77 17.11L18.66 17.11L18.66 28L24.88 28C26.6 28 28 26.6 28 24.88L28 3.11C28 1.4 26.6 0 24.88 0Z" fill="#000000" fill-opacity="1.000000" fill-rule="nonzero"/>
</svg>
