<svg width="28.000000" height="28.000000" viewBox="0 0 28 28" fill="none" xmlns="http://www.w3.org/2000/svg" xmlns:xlink="http://www.w3.org/1999/xlink">
	<desc>
			Created with Pixso.
	</desc>
	<defs/>
	<path id="Vector" d="M14 0C10.19 0 9.71 0.01 8.23 0.08C6.73 0.15 5.72 0.38 4.83 0.73C3.89 1.08 3.05 1.63 2.35 2.35C1.63 3.04 1.08 3.89 0.73 4.83C0.38 5.72 0.15 6.73 0.08 8.23C0.01 9.72 0 10.19 0 14C0 17.8 0.01 18.28 0.08 19.76C0.15 21.26 0.38 22.27 0.73 23.16C1.08 24.1 1.63 24.94 2.35 25.64C3.04 26.36 3.89 26.91 4.83 27.26C5.72 27.6 6.73 27.84 8.23 27.91C9.72 27.98 10.19 28 14 28C17.8 28 18.28 27.98 19.76 27.91C21.26 27.84 22.27 27.6 23.16 27.26C24.1 26.91 24.94 26.36 25.64 25.64C26.36 24.95 26.91 24.1 27.26 23.16C27.6 22.27 27.84 21.26 27.91 19.76C27.98 18.27 28 17.8 28 14C28 10.19 27.98 9.71 27.91 8.23C27.84 6.73 27.6 5.71 27.26 4.83C26.91 3.89 26.36 3.05 25.64 2.35C24.95 1.63 24.1 1.08 23.16 0.73C22.27 0.38 21.26 0.15 19.76 0.08C18.27 0.01 17.8 0 14 0ZM14 2.52C17.73 2.52 18.18 2.53 19.66 2.6C21.02 2.66 21.76 2.89 22.25 3.08C22.86 3.31 23.41 3.66 23.87 4.13C24.33 4.58 24.69 5.13 24.91 5.74C25.1 6.23 25.33 6.97 25.39 8.33C25.46 9.81 25.48 10.26 25.48 14C25.48 17.73 25.46 18.18 25.39 19.66C25.32 21.02 25.09 21.76 24.9 22.25C24.63 22.91 24.34 23.37 23.85 23.87C23.39 24.33 22.84 24.69 22.23 24.91C21.75 25.1 20.99 25.33 19.63 25.4C18.14 25.46 17.7 25.48 13.96 25.48C10.21 25.48 9.77 25.46 8.29 25.39C6.92 25.32 6.17 25.09 5.68 24.9C5.01 24.63 4.56 24.34 4.07 23.85C3.58 23.36 3.26 22.89 3.02 22.23C2.83 21.75 2.6 21 2.53 19.63C2.48 18.16 2.46 17.7 2.46 13.97C2.46 10.25 2.48 9.79 2.53 8.31C2.6 6.94 2.83 6.19 3.02 5.7C3.26 5.03 3.58 4.58 4.07 4.08C4.56 3.6 5.01 3.28 5.68 3.04C6.17 2.84 6.9 2.62 8.27 2.55C9.76 2.49 10.2 2.48 13.94 2.48L14 2.52ZM14 6.81C13.05 6.81 12.12 6.99 11.24 7.36C10.37 7.72 9.58 8.25 8.91 8.91C8.24 9.58 7.72 10.37 7.35 11.25C6.99 12.12 6.81 13.05 6.81 14C6.81 14.94 6.99 15.88 7.35 16.75C7.72 17.62 8.24 18.41 8.91 19.08C9.58 19.75 10.37 20.28 11.24 20.64C12.12 21 13.05 21.18 14 21.18C14.94 21.18 15.87 21 16.75 20.64C17.62 20.28 18.41 19.75 19.08 19.08C19.75 18.41 20.27 17.62 20.64 16.75C21 15.88 21.18 14.94 21.18 14C21.18 13.05 21 12.12 20.64 11.25C20.27 10.37 19.75 9.58 19.08 8.91C18.41 8.25 17.62 7.72 16.75 7.36C15.87 6.99 14.94 6.81 14 6.81ZM14 18.66C11.42 18.66 9.33 16.58 9.33 14C9.33 11.42 11.42 9.33 14 9.33C16.57 9.33 18.66 11.42 18.66 14C18.66 16.58 16.57 18.66 14 18.66ZM23.15 6.52C23.15 6.97 22.97 7.4 22.66 7.71C22.34 8.03 21.92 8.2 21.47 8.2C21.25 8.2 21.03 8.16 20.83 8.08C20.62 7.99 20.44 7.87 20.28 7.71C20.13 7.56 20 7.37 19.92 7.17C19.83 6.96 19.79 6.74 19.79 6.52C19.79 6.3 19.83 6.09 19.92 5.88C20 5.68 20.13 5.49 20.28 5.34C20.44 5.18 20.62 5.06 20.83 4.97C21.03 4.89 21.25 4.84 21.47 4.84C22.39 4.84 23.15 5.6 23.15 6.52Z" fill="#000000" fill-opacity="1.000000" fill-rule="nonzero"/>
</svg>
