<svg width="200.000000" height="50.000000" viewBox="0 0 200 50" fill="none" xmlns="http://www.w3.org/2000/svg" xmlns:xlink="http://www.w3.org/1999/xlink">
	<desc>
			Created with Pixso.
	</desc>
	<defs/>
	<path id="Selve Restourant" d="M36.36 31.5Q36.8 32.07 38 32.07Q38.07 32.07 38.14 32.07Q39.22 32.03 40.27 31.32Q41.4 30.56 42.16 29.8Q42.83 29.08 43.35 28.46Q43.88 27.83 44.15 27.47Q44.17 27.45 44.19 27.42Q44.73 26.73 45.51 25.74Q46.35 24.67 47.04 23.67Q46.68 24.63 46.39 25.89Q46.12 27.15 45.97 28.35Q45.84 29.55 45.84 30.43Q45.84 31.44 46.24 31.84Q46.45 32.05 46.7 32.15Q46.93 32.24 47.19 32.24Q47.63 32.24 48.15 32.03Q48.6 31.87 49.01 31.64Q49.08 31.6 49.16 31.56Q49.88 31.12 50.84 30.08Q51.79 29.04 52.75 27.76Q53.72 26.48 54.45 25.32Q55.19 24.15 55.44 23.52Q55.55 23.2 55.59 22.94Q55.63 22.68 55.63 22.47Q55.63 21.79 55.29 21.47Q55.21 21.4 55.11 21.34Q54.6 21.04 54.08 20.87Q53.98 20.83 53.89 20.83Q53.82 20.83 53.75 20.85Q53.61 20.91 53.59 20.98Q53.59 20.99 53.59 21Q53.59 21.01 53.59 21.02Q53.61 21.12 53.83 21.19Q53.91 21.23 54.03 21.44Q54.16 21.63 54.16 22.11Q54.16 22.4 54.07 22.85Q53.99 23.31 53.76 23.96Q53.43 24.88 52.81 26Q52.19 27.11 51.49 28.12Q50.8 29.11 50.23 29.72Q49.79 30.2 49.17 30.64Q48.55 31.08 48.11 31.08Q47.97 31.08 47.86 31.03Q47.71 30.96 47.59 30.82Q47.4 30.56 47.4 29.91Q47.4 29.04 47.65 27.78Q47.92 26.52 48.34 25.2Q48.76 23.88 49.18 22.8Q49.6 21.71 49.96 21.19Q50.07 21.04 50.07 20.9Q50.07 20.81 50.03 20.78Q50 20.75 49.96 20.75Q49.92 20.75 49.71 20.87Q49.44 21.16 48.81 21.32Q48.2 21.48 47.75 21.56Q47 22.76 45.93 24.24Q44.88 25.72 44.04 26.88L44.04 26.88Q43.94 27 43.84 27.11Q43.19 27.87 42.39 28.71Q41.59 29.55 40.79 30.2Q39.99 30.83 39.32 30.96Q39.15 31 39.03 31L38.8 31Q38.17 31 37.84 30.68Q37.77 30.62 37.72 30.54Q37.7 30.52 37.68 30.49Q37.39 30.04 37.39 29.4Q37.39 28.6 37.68 27.66Q37.96 26.71 38.33 25.85Q38.71 24.99 39 24.48Q39.59 23.92 40.93 22.7Q42.28 21.48 43.96 19.66Q45.64 17.83 47.24 15.6Q47.83 14.8 48.65 13.54Q49.47 12.28 50.09 10.96Q50.71 9.63 50.71 8.71Q50.71 8.39 50.67 8.27Q50.63 8.09 50.54 7.93Q50.47 7.82 50.37 7.72Q50.35 7.69 50.33 7.67Q50.11 7.47 49.72 7.47Q49.53 7.47 49.35 7.5Q48.87 7.58 48.41 7.85Q47.79 8.24 47.17 8.67Q46.55 9.11 45.88 9.4Q45.08 10.47 44.05 12.26Q43.04 14.04 41.97 16.14Q40.92 18.24 39.93 20.22Q38.96 22.19 38.16 23.67Q37.47 24.55 36.75 25.35Q36.11 26.07 35.6 26.72Q35.15 27.26 34.49 27.94Q33.52 28.96 32.36 29.84Q31.19 30.72 29.99 31.12Q29.47 31.27 29.04 31.36Q28.6 31.44 28.27 31.44Q27.54 31.44 27.2 31.07Q27.16 31.04 27.13 31Q27.12 30.99 27.12 30.98Q26.8 30.55 26.8 29.88Q26.8 29.32 26.95 28.64Q27.11 27.95 27.39 27.24Q28.12 27.24 28.92 27.08Q29.72 26.92 30.31 26.75Q31.31 26.44 32.39 25.94Q33.48 25.43 34.21 24.63Q34.41 24.42 34.55 24.17Q34.95 23.5 34.95 22.59Q34.95 22.17 34.8 21.82Q34.7 21.61 34.55 21.42Q34.55 21.42 34.55 21.41Q34.15 20.91 33.12 20.91Q31.92 20.91 30.64 21.63Q30.48 21.72 30.33 21.81Q29.23 22.48 28.27 23.4Q27.2 24.44 26.55 25.39Q26 26.31 25.37 27.64Q24.76 28.96 24.76 30.11Q24.76 30.61 24.95 31.04Q25.1 31.39 25.39 31.68Q26.04 32.32 27.68 32.32Q28.2 32.32 28.71 32.24Q29.84 32.06 30.91 31.5Q31.81 31.02 32.62 30.42Q33.21 29.98 33.75 29.48Q34.87 28.43 35.62 27.44Q35.82 27.2 36.23 26.76Q36.72 26.23 37.24 25.68Q36.91 26.4 36.42 27.68Q35.92 28.96 35.92 30.07Q35.92 30.77 36.22 31.29Q36.28 31.4 36.36 31.5ZM42.81 19.9Q40.92 21.84 39.68 22.87Q40.48 21.4 41.53 19.4Q42.6 17.4 43.75 15.32Q44.91 13.24 45.97 11.54Q47.03 9.84 47.87 8.96Q48.59 8.2 49.03 8.2Q49.12 8.2 49.19 8.23Q49.4 8.35 49.4 8.83Q49.4 9.51 49.03 10.46Q48.67 11.4 48.17 12.38Q47.68 13.35 47.22 14.11Q46.76 14.88 46.55 15.2Q44.72 17.95 42.81 19.9ZM11.89 32.93Q13.44 33.35 14.83 33.35Q14.92 33.35 15 33.35Q16.44 33.32 17.87 32.83Q18.71 32.55 19.48 32.14Q20.11 31.8 20.69 31.38Q21.92 30.48 22.69 29.29Q22.73 29.22 22.77 29.15Q23.05 28.69 23.23 28.2Q23.55 27.31 23.55 26.31Q23.55 26.1 23.54 25.89Q23.48 25.03 23.15 24.19Q23.03 23.87 22.89 23.57Q22.34 22.37 21.49 21.3Q20.44 19.95 19.35 18.67Q18.27 17.4 17.67 15.96Q17.35 15.2 17.35 14.44Q17.35 14.03 17.43 13.65Q17.66 12.58 18.51 11.63Q18.7 11.43 18.91 11.26Q20.03 10.35 21.87 10.35Q22.96 10.35 23.71 10.68Q24.47 11 24.96 11.44Q25.35 11.74 25.46 12.13Q25.49 12.25 25.5 12.38Q25.52 12.91 25.52 13.35Q25.52 14.04 25.23 14.88Q24.96 15.72 24.79 16.04Q24.8 16.05 24.81 16.06Q24.9 16.15 25.17 16.06Q25.48 15.96 25.56 15.91Q25.63 15.6 26.07 14.76Q26.51 13.92 26.87 13.39Q27.2 12.95 27.2 12.15Q27.2 11.59 26.95 11.23Q26.13 10.34 25.11 9.93Q25.09 9.92 25.07 9.91Q24.57 9.72 24.06 9.62Q23.5 9.51 22.92 9.51Q22.66 9.51 22.41 9.53Q21.03 9.64 19.7 10.3Q18.21 11.03 17.28 12.2Q17.22 12.28 17.16 12.36Q16.39 13.49 16.23 14.71Q16.19 15.03 16.19 15.35Q16.19 15.54 16.2 15.72Q16.29 17.02 16.95 18.27Q17.83 19.88 18.9 21.54Q19.96 23.2 20.59 24.91Q21.07 26.16 21.07 27.4Q21.07 28.66 20.57 29.68Q20.27 30.31 19.77 30.84Q19.54 31.1 19.26 31.31Q18.04 32.24 16.11 32.24Q14.39 32.24 12.62 31.42Q10.93 30.64 9.94 29.33Q9.88 29.26 9.83 29.19Q9.43 28.64 9.17 27.85Q8.91 27.07 8.91 26.31Q8.91 25.78 9.07 25.31Q9.08 25.28 9.09 25.26Q9.12 25.18 9.15 25.1Q9.34 24.7 9.68 24.36Q9.74 24.32 9.76 24.27Q9.78 24.2 9.7 24.09Q9.56 23.92 9.47 23.92L9.43 23.92Q8.63 24.51 8.08 25.68Q7.69 26.48 7.57 27.33Q7.52 27.7 7.52 28.08Q7.52 28.31 7.54 28.56Q7.56 28.79 7.6 29Q7.88 30.14 8.56 30.96Q8.84 31.28 9.17 31.56Q9.41 31.75 9.68 31.93Q10.67 32.6 11.89 32.93ZM87.89 32.29Q88.92 32.91 89.91 32.91Q91.59 32.91 93.27 31.42Q94.7 30.14 96.24 28.14Q95.84 29.18 95.84 30.11Q95.84 30.61 96.03 31.04Q96.18 31.39 96.47 31.68Q97.12 32.32 98.76 32.32Q99.28 32.32 99.79 32.24Q100.92 32.06 101.99 31.5Q102.89 31.02 103.7 30.42Q104.29 29.98 104.83 29.48Q105.04 29.28 105.23 29.09Q105.04 29.67 105.04 30.16Q105.04 30.39 105.08 30.51Q105.2 31.02 105.5 31.4Q105.67 31.61 105.89 31.78Q105.96 31.83 106.03 31.88Q106.6 32.26 107.31 32.43Q108.11 32.64 108.84 32.64Q109.64 32.64 110.36 32.4Q110.72 32.27 111.05 32.09Q111.83 31.69 112.37 31.07Q112.54 30.87 112.69 30.66Q113.02 30.18 113.18 29.66Q113.32 29.19 113.32 28.67Q113.32 28.58 113.31 28.48Q113.25 27.5 112.56 26.56Q112.12 25.96 111.32 25.16Q110.51 24.36 110.36 23.71Q110.32 23.64 110.32 23.52L110.32 23.31Q110.32 22.88 110.5 22.53Q110.64 22.24 110.92 22.01Q111.44 21.58 111.99 21.52Q112.07 21.52 112.16 21.52Q112.26 21.52 112.37 21.53Q112.69 21.58 113 21.78Q113.01 21.79 113.03 21.8Q113.4 22.06 113.59 22.59Q113.84 23.12 113.84 23.79Q113.84 23.96 113.8 24.16Q113.76 24.36 113.76 24.51Q113.76 24.57 113.78 24.59Q113.83 24.64 113.97 24.57Q114.04 24.54 114.1 24.5Q114.23 24.4 114.31 24.23Q114.52 23.79 114.69 23.29Q114.88 22.8 114.88 22.32Q114.84 21.53 114.43 21.19Q114.3 21.08 114.13 21.02Q113.43 20.75 112.6 20.75Q112.31 20.75 112.03 20.81Q111.61 20.88 111.21 21.08Q110.61 21.37 110.19 21.84Q110.15 21.88 110.11 21.92Q109.71 22.4 109.37 22.98Q109.04 23.56 108.36 24.55Q108.11 24.88 107.71 25.42Q107.31 25.96 107 26.31Q106.92 26.41 106.86 26.51Q106.36 27.12 105.57 27.94Q104.6 28.96 103.44 29.84Q102.27 30.72 101.07 31.12Q100.55 31.27 100.12 31.36Q99.68 31.44 99.35 31.44Q98.62 31.44 98.28 31.07Q98.24 31.04 98.21 31Q98.2 30.99 98.2 30.98Q97.88 30.55 97.88 29.88Q97.88 29.32 98.03 28.64Q98.19 27.95 98.47 27.24Q99.2 27.24 100 27.08Q100.8 26.92 101.39 26.75Q102.39 26.44 103.47 25.94Q104.56 25.43 105.29 24.63Q105.49 24.42 105.64 24.17Q106.03 23.5 106.03 22.59Q106.03 22.17 105.88 21.82Q105.79 21.61 105.63 21.42Q105.63 21.42 105.63 21.41Q105.23 20.91 104.2 20.91Q103 20.91 101.72 21.63Q101.56 21.72 101.41 21.81Q100.31 22.48 99.35 23.4Q98.28 24.44 97.63 25.39Q97.32 25.91 96.99 26.55Q96.97 26.54 96.96 26.53Q96.94 26.52 96.91 26.52Q96.84 26.52 96.72 26.71Q96.15 27.47 95.21 28.5Q94.64 29.12 93.98 29.65Q93.57 29.98 93.13 30.28Q92.33 30.82 91.45 30.97Q91.09 31.04 90.71 31.04Q89.91 31.04 89.07 30.64Q88.23 30.24 87.43 29.23Q85.92 27.36 84.85 25.48Q83.8 23.6 83.27 22.47Q84.55 22.4 86.09 22.16Q87.64 21.92 89.07 21.42Q90.52 20.91 91.55 20.2Q92.2 19.76 92.68 19.28Q93.15 18.79 93.55 18.27Q93.72 18.06 93.86 17.84Q94.72 16.48 94.72 14.59Q94.72 13.45 94.29 12.51Q94.17 12.27 94.03 12.03Q93.85 11.74 93.62 11.51Q93.18 11.06 92.55 10.79Q91.59 10.39 90.43 10.28Q89.28 10.16 88.19 10.16Q87.71 10.16 87.28 10.18Q86.84 10.2 86.47 10.2Q85 10.2 83.23 10.22Q81.47 10.24 80.2 10.24Q79.36 10.24 78.25 10.3Q77.23 10.35 76.26 10.58Q76.18 10.6 76.11 10.62Q75.08 10.87 74.39 11.46Q74.2 11.62 74.06 11.83Q73.71 12.33 73.71 13.08Q73.71 13.48 73.84 13.96Q73.99 14.48 74.49 15.26Q75 16.04 75.39 16.23Q75.39 16.23 75.39 16.23Q75.48 16.27 75.62 16.19Q75.75 16.12 75.75 16.04Q75.75 15.98 75.73 15.96Q75.72 15.96 75.71 15.96Q75.53 15.85 75.41 15.69Q75.08 15.3 75.08 14.63Q75.08 14.54 75.09 14.45Q75.11 14.18 75.2 13.92Q75.31 13.56 75.48 13.2Q75.84 12.51 76.87 12.03Q77.92 11.56 79.3 11.28Q80.67 11 82.13 10.86Q83.59 10.72 84.83 10.72Q85.12 10.72 85.35 10.74Q85.6 10.75 85.84 10.75Q85.16 11 84.45 11.42Q83.76 11.84 83.48 12.36Q83.12 13.03 82.39 14.55Q81.68 16.08 80.75 17.72Q79.79 19.48 78.83 21.25Q77.87 23.03 76.95 24.8Q76.19 26.23 75.37 27.66Q74.55 29.08 73.71 30.47Q73.4 31.06 72.95 31.5Q72.81 31.62 72.67 31.74Q72.61 31.78 72.55 31.82Q71.96 32.25 71.15 32.4Q71.08 32.43 71.08 32.48Q71.06 32.53 71.15 32.61Q71.17 32.63 71.19 32.64Q71.35 32.76 71.59 32.76Q71.76 32.76 71.84 32.72Q72.64 32.43 73.27 32Q73.92 31.56 74.32 31.4Q74.72 31.19 75.12 31.19Q75.56 31.19 75.87 31.36Q76.19 31.52 76.51 31.52Q76.57 31.52 76.6 31.49Q76.63 31.46 76.63 31.4Q76.63 31.31 76.59 31.27Q76.44 30.91 76.78 29.91Q77.12 28.92 77.71 27.64Q78.31 26.35 78.99 25.05Q79.68 23.75 80.23 22.74Q80.79 21.71 81 21.31Q81.76 19.84 82.6 18.14Q82.68 17.97 82.77 17.8Q83.53 16.27 84.36 14.78Q85.27 13.12 86.28 11.8Q86.29 11.79 86.3 11.77Q86.74 11.23 87.62 11.04Q88.52 10.83 89.28 10.83L89.67 10.83Q89.87 10.83 90.04 10.87Q90.75 10.96 91.27 11.32Q91.69 11.61 91.99 12.08Q92.15 12.33 92.27 12.59Q92.68 13.44 92.68 14.48Q92.68 14.95 92.62 15.46Q92.61 15.49 92.61 15.51Q92.55 15.98 92.35 16.44Q91.72 18.35 90.79 19.4Q89.98 20.31 88.97 20.74Q88.83 20.8 88.69 20.85Q87.52 21.27 86.02 21.34Q84.51 21.4 82.64 21.4Q82.43 21.4 82.13 21.66Q81.84 21.92 81.63 22.18L81.44 22.43Q81.72 22.95 82.26 24.15Q82.79 25.35 83.67 26.96Q84.55 28.56 85.84 30.32Q86.87 31.67 87.89 32.29ZM106.91 27.15Q106.61 27.57 106.25 27.99Q106.27 28.02 106.27 28.04Q106.27 28.08 106.24 28.12Q106.2 28.24 106.11 28.42Q106.03 28.6 105.99 28.79Q105.92 29.47 106.13 30.05Q106.24 30.36 106.43 30.64Q106.68 30.96 107.01 31.24Q107.35 31.52 107.67 31.71Q107.96 31.88 108.36 31.94Q108.76 32 109.16 32Q109.76 32 110.34 31.85Q110.36 31.85 110.39 31.84Q110.99 31.67 111.28 31.31Q111.56 30.96 111.69 30.56Q111.79 30.24 111.79 29.88Q111.79 29.27 111.47 28.6Q111.16 27.91 110.48 27.15Q110.04 26.67 109.64 26.12Q109.34 25.71 109.2 25.25Q109.15 25.09 109.12 24.91Q109.08 24.8 109.06 24.68Q109.04 24.55 109.04 24.44Q108.51 25.2 107.98 25.86Q107.44 26.52 107.04 27Q106.97 27.1 106.91 27.15ZM116.63 31.96Q116.91 32.11 117.31 32.11Q117.48 32.11 117.65 32.1Q118.75 32.01 119.81 31.36Q121.04 30.6 122.11 29.5Q122.63 28.96 123.08 28.46Q122.64 29.57 122.64 30.68Q122.64 31.44 123.01 31.74Q123.07 31.78 123.13 31.82Q123.63 32.07 124.28 32.07Q125.23 32.07 126.13 31.83Q127.84 31.36 129.32 29.99Q129.47 30.03 129.63 30.03L129.95 30.03Q130.84 30.03 131.62 29.74Q132.17 29.53 132.67 29.17Q133.66 28.47 134.38 27.59Q134.4 27.56 134.44 27.51Q134.96 26.84 135.91 25.7Q136.88 24.55 137.76 23.71Q138.16 23.39 138.62 23.08Q138.92 22.86 139.03 22.94Q139.08 22.97 139.08 23.08Q139.08 23.27 138.75 23.88Q138.43 24.51 137.99 25.43Q137.55 26.35 137.07 27.28Q136.84 27.76 136.48 28.52Q136.12 29.27 135.81 30.03Q135.51 30.79 135.51 31.35Q135.51 31.71 135.69 31.88Q135.74 31.92 135.8 31.96Q136.08 32.11 136.48 32.11Q136.71 32.11 136.93 32.09Q137.89 31.99 138.81 31.46Q139.96 30.79 140.95 29.84Q141.71 29.11 142.46 28.18Q143.2 27.24 143.72 26.48Q143.47 26.92 143.13 27.82Q142.8 28.71 142.51 29.61Q142.23 30.51 142.23 31.04Q142.23 31.49 142.46 31.73Q142.57 31.85 142.73 31.92Q143.24 32.11 143.64 32.11Q143.81 32.11 143.97 32.1Q145.08 32.01 146.14 31.36Q147.36 30.6 148.41 29.5Q149.36 28.51 150.07 27.62Q150.11 27.58 150.16 27.51Q150.22 27.43 150.29 27.34Q150.42 27.2 150.53 27.03Q150.81 26.67 151.19 26.19Q151.88 25.35 152.66 24.46Q153.44 23.56 154 22.95Q153.88 23.2 153.54 24.02Q153.2 24.84 152.75 25.98Q152.32 27.11 151.84 28.31Q151.36 29.51 150.96 30.47Q150.75 31 150.57 31.44Q150.39 31.88 150.2 32.24Q150.08 32.47 150.13 32.53Q150.15 32.55 150.2 32.55Q150.39 32.55 150.91 32.33Q151.44 32.11 151.95 32.07Q152.07 31.71 152.32 31.1Q152.56 30.47 152.79 29.84Q153.23 28.67 153.91 27.45Q154.59 26.23 155.75 24.88Q156.67 23.83 157.59 23.04Q158.52 22.24 159.15 22.24Q159.56 22.24 159.81 22.44Q159.99 22.57 160.09 22.8Q160.35 23.35 160.35 24.04Q160.35 24.27 160.33 24.48Q160.31 24.67 160.28 24.88Q160.26 24.93 160.28 24.96Q160.32 25 160.47 24.93Q160.71 24.84 160.75 24.72Q160.92 24.4 161.25 23.78Q161.48 23.37 161.56 22.92Q161.59 22.7 161.59 22.47Q161.59 22.11 161.48 21.84Q161.27 21.27 160.91 21.06Q160.56 20.83 160.03 20.83Q159.32 20.83 158.5 21.36Q157.68 21.88 156.88 22.66Q156.08 23.43 155.41 24.25Q154.76 25.07 154.36 25.68Q154.87 24.72 155.43 23.68Q156 22.64 156.46 21.84Q156.92 21.04 157.16 20.79Q157.28 20.64 157.26 20.5Q157.24 20.38 157.19 20.36Q157.17 20.35 157.16 20.35Q157.15 20.35 157.14 20.36Q157.02 20.36 156.92 20.47Q156.59 20.75 155.73 20.92Q154.87 21.08 154.44 21.16Q154.24 21.48 153.48 22.5Q152.72 23.52 151.77 24.72Q151.2 25.45 150.69 26.09Q150.69 26.08 150.68 26.08Q150.6 26.16 150.36 26.48Q150.11 26.8 149.84 27.11Q149.19 27.87 148.19 28.77Q147.19 29.67 146.25 30.32Q145.32 30.96 144.8 30.96Q144.7 30.96 144.61 30.92Q144.36 30.82 144.23 30.39Q144.12 29.91 144.35 28.92Q144.59 27.91 145.07 26.71Q145.55 25.51 146.15 24.38Q146.75 23.24 147.37 22.43Q147.99 21.63 148.47 21.48Q148.92 21.34 148.99 21.09Q149 21.05 149 21Q149 20.94 148.97 20.9Q148.94 20.87 148.87 20.87L148.79 20.87Q148.69 20.92 148.58 20.96Q148 21.19 147.32 21.19Q146.52 21.19 146.27 21.23Q146.17 21.25 146.09 21.3Q145.99 21.37 145.93 21.5Q145.83 21.71 145.76 21.88Q145.32 22.72 144.57 24.04Q143.83 25.35 142.81 26.78Q142.01 27.9 141.07 28.88Q140.81 29.14 140.55 29.4Q139.88 30.03 139.23 30.5Q138.6 30.96 138.16 30.96Q137.88 30.96 137.73 30.82Q137.59 30.68 137.59 30.39Q137.59 29.91 138.03 28.88Q138.47 27.83 139.09 26.61Q139.71 25.39 140.31 24.36Q140.91 23.31 141.2 22.87Q141.67 22.15 141.67 21.59Q141.67 21.36 141.56 21.22Q141.37 20.96 140.83 20.96Q139.96 20.96 139.3 21.34Q139.03 21.5 138.79 21.72Q137.99 22.47 137.23 23.27Q136.44 24.15 135.68 25.12Q134.93 26.05 134.39 26.84Q133.79 27.58 133.07 28.17Q132.78 28.4 132.47 28.62Q131.82 29.07 131.09 29.29Q130.45 29.48 129.75 29.48Q130.2 29.04 130.56 28.62Q130.92 28.2 131.28 27.72Q132.03 26.63 132.73 25.22Q133.44 23.79 133.44 22.43Q133.44 21.65 133.05 21.29Q133 21.25 132.95 21.21Q132.81 21.11 132.65 21.04Q132.28 20.87 131.84 20.87Q131.07 20.87 129.97 21.34Q128.88 21.8 128.23 22.19Q128.14 22.25 128.05 22.31Q127.16 22.87 126.38 23.62Q125.52 24.44 124.83 25.35Q124.51 25.81 124.2 26.33Q124.14 26.41 124.05 26.52Q123.84 26.8 123.55 27.11Q122.92 27.87 122.03 28.77Q121.15 29.67 120.33 30.32Q119.51 30.96 118.99 30.96Q118.8 30.96 118.59 30.76Q118.54 30.71 118.5 30.64Q118.4 30.47 118.4 30.24L118.4 30.07Q118.48 29.27 118.84 28.1Q119.2 26.92 119.7 25.74Q120.2 24.55 120.63 23.64Q121.07 22.72 121.32 22.43Q121.35 22.39 121.38 22.36Q121.65 22.02 122.21 21.92Q122.83 21.8 123.57 21.76Q124.32 21.71 125 21.52Q125.6 21.35 125.6 21.19Q125.6 21.19 125.59 21.18Q125.57 21.08 125.16 21.08L121.91 21.08Q122.68 19.51 123.52 18.1Q124.36 16.67 125.03 15.66Q125.71 14.63 126 14.32Q126.16 14.11 126.11 14.04Q126.08 14 126 14Q125.88 14 125.67 14.19Q125.23 14.63 124.45 15.05Q123.67 15.47 123.36 15.51Q122.6 17.19 121.82 18.6Q121.04 19.99 120.23 21.08Q119.95 21.08 119.36 21.06Q118.76 21.04 118.71 21.04Q118.52 21.04 118.12 21.36Q117.71 21.67 117.47 22Q117.3 22.22 117.35 22.29Q117.37 22.32 117.43 22.32Q117.47 22.32 117.87 22.26Q118.27 22.19 118.77 22.15Q119.28 22.11 119.6 22.11Q119.07 22.8 118.37 23.67Q117.68 24.55 116.99 25.41Q116.32 26.27 115.84 26.88Q115.71 27.05 115.66 27.25Q115.63 27.36 115.63 27.47Q115.63 27.65 115.69 27.68Q115.7 27.68 115.71 27.68Q115.79 27.68 115.92 27.51Q116.15 27.19 116.69 26.52Q117.24 25.83 117.89 25.05Q118.55 24.27 119.13 23.56Q119.72 22.83 120.08 22.43L119.81 23.04Q119.55 23.64 119.17 24.5Q118.8 25.35 118.46 26.14Q118.12 26.92 117.92 27.28Q117.68 27.76 117.31 28.52Q116.95 29.27 116.65 30.03Q116.36 30.79 116.36 31.35Q116.36 31.72 116.54 31.89Q116.58 31.93 116.63 31.96ZM186.71 31.96Q186.99 32.11 187.39 32.11Q187.56 32.11 187.73 32.1Q188.83 32.01 189.89 31.36Q191.12 30.6 192.19 29.5Q193.27 28.39 194.04 27.4Q194.19 27.19 194.33 26.92Q194.47 26.63 194.47 26.4Q194.47 26.31 194.4 26.16Q194.36 26.23 194.13 26.52Q193.92 26.8 193.63 27.11Q193 27.87 192.11 28.77Q191.23 29.67 190.41 30.32Q189.59 30.96 189.07 30.96Q188.88 30.96 188.67 30.76Q188.62 30.71 188.58 30.64Q188.48 30.47 188.48 30.24L188.48 30.07Q188.56 29.27 188.92 28.1Q189.28 26.92 189.78 25.74Q190.28 24.55 190.71 23.64Q191.15 22.72 191.4 22.43Q191.43 22.39 191.46 22.36Q191.73 22.02 192.29 21.92Q192.91 21.8 193.65 21.76Q194.4 21.71 195.08 21.52Q195.68 21.35 195.68 21.19Q195.68 21.19 195.67 21.18Q195.65 21.08 195.24 21.08L191.99 21.08Q192.76 19.51 193.6 18.1Q194.44 16.67 195.11 15.66Q195.79 14.63 196.08 14.32Q196.24 14.11 196.19 14.04Q196.16 14 196.08 14Q195.96 14 195.75 14.19Q195.31 14.63 194.53 15.05Q193.75 15.47 193.44 15.51Q192.68 17.19 191.9 18.6Q191.12 19.99 190.31 21.08Q190.03 21.08 189.44 21.06Q188.84 21.04 188.79 21.04Q188.6 21.04 188.2 21.36Q187.79 21.67 187.55 22Q187.38 22.22 187.43 22.29Q187.45 22.32 187.51 22.32Q187.55 22.32 187.95 22.26Q188.35 22.19 188.85 22.15Q189.36 22.11 189.68 22.11Q189.15 22.8 188.45 23.67Q187.76 24.55 187.07 25.41Q186.78 25.79 186.52 26.12L186.52 26.12Q185.55 27.32 184.59 28.38Q183.64 29.44 182.82 30.12Q182 30.79 181.31 30.79Q181.04 30.79 180.9 30.65Q180.76 30.52 180.76 30.24Q180.76 29.76 181.18 28.74Q181.6 27.72 182.17 26.54Q182.76 25.35 183.34 24.34Q183.91 23.31 184.19 22.87Q184.71 22.07 184.71 21.59Q184.71 21.38 184.61 21.23Q184.41 20.96 183.83 20.96L183.61 20.96Q183.47 20.96 183.32 21Q182.63 21.08 181.71 21.68Q180.8 22.28 179.96 23Q179.12 23.71 178.64 24.19Q178.12 24.76 177.55 25.36Q177 25.96 176.52 26.59Q177.08 25.6 177.73 24.36Q178.39 23.12 178.97 22.1Q179.56 21.08 179.8 20.79Q179.92 20.64 179.9 20.5Q179.88 20.38 179.83 20.36Q179.81 20.35 179.8 20.35Q179.79 20.35 179.78 20.36Q179.66 20.36 179.56 20.47Q179.23 20.75 178.37 20.92Q177.51 21.08 177.08 21.16Q176.88 21.48 176.12 22.5Q175.36 23.52 174.41 24.72Q173.77 25.53 173.22 26.23Q172.85 26.68 172.29 27.38Q171.63 28.2 170.85 29.02Q170.07 29.84 169.31 30.4Q168.56 30.96 167.95 30.96Q167.68 30.96 167.54 30.82Q167.4 30.68 167.4 30.39Q167.4 29.91 167.83 28.88Q168.27 27.83 168.89 26.61Q169.51 25.39 170.11 24.36Q170.72 23.31 171 22.87Q171.19 22.55 171.59 22.05Q172 21.56 172.4 21.56Q172.6 21.56 172.69 21.46Q172.76 21.38 172.76 21.23Q172.76 21.18 172.73 21.14Q172.68 21.08 172.55 21.08L167.95 21.08Q167.29 21.08 166.67 21.25Q165.76 21.49 164.95 22.11Q163.75 23.03 162.59 24.51Q161.77 25.57 161.13 26.73Q160.87 27.2 160.64 27.68Q159.84 29.36 159.63 30.91Q159.59 31 159.59 31.19Q159.59 31.56 159.75 31.82Q159.78 31.87 159.83 31.92Q160 32.07 160.32 32.07Q160.74 32.07 161.14 31.98Q161.73 31.85 162.28 31.52Q163.2 30.96 163.96 30.32Q165.47 29 166.88 27.51Q166.59 27.95 166.23 28.66Q165.87 29.36 165.59 30.08Q165.32 30.79 165.32 31.35Q165.32 31.72 165.5 31.89Q165.54 31.93 165.59 31.96Q165.87 32.11 166.27 32.11Q166.45 32.11 166.63 32.1Q167.72 32.01 168.77 31.38Q169.99 30.64 171.03 29.53Q171.95 28.56 172.69 27.63Q172.74 27.59 172.8 27.51Q173.16 27.03 173.83 26.19Q174.52 25.35 175.3 24.46Q176.08 23.56 176.64 22.95Q176.52 23.2 176.18 24.02Q175.84 24.84 175.4 25.98Q174.96 27.11 174.48 28.31Q174 29.51 173.6 30.47Q173.39 31 173.21 31.44Q173.03 31.88 172.84 32.24Q172.71 32.51 172.78 32.57Q172.8 32.59 172.84 32.59Q173.03 32.59 173.55 32.35Q174.08 32.11 174.59 32.07Q175.36 30.07 176.45 28.18Q177.47 26.41 178.83 24.95Q178.93 24.83 179.04 24.72Q179.19 24.55 179.71 24.09Q180.24 23.64 180.85 23.16Q181.48 22.68 181.92 22.43Q182.22 22.27 182.31 22.35Q182.36 22.38 182.36 22.47Q182.36 22.64 182.23 22.87Q182 23.39 181.39 24.63Q180.8 25.87 180.07 27.28Q179.92 27.59 179.61 28.25Q179.31 28.92 179.07 29.64Q178.83 30.35 178.83 31Q178.83 31.49 179.05 31.84Q179.08 31.89 179.12 31.94Q179.14 31.96 179.16 31.99Q179.45 32.32 180.11 32.32Q180.15 32.32 180.19 32.32Q180.8 32.3 181.39 32Q182.04 31.67 182.44 31.4Q182.99 30.96 183.67 30.22Q184.35 29.48 185.01 28.69Q185.54 28.07 185.9 27.62Q185.95 27.58 186 27.51Q186.23 27.19 186.77 26.52Q187.32 25.83 187.97 25.05Q188.63 24.27 189.21 23.56Q189.8 22.83 190.16 22.43L189.89 23.04Q189.63 23.64 189.25 24.5Q188.88 25.35 188.54 26.14Q188.2 26.92 188 27.28Q187.76 27.76 187.39 28.52Q187.03 29.27 186.73 30.03Q186.44 30.79 186.44 31.35Q186.44 31.72 186.62 31.89Q186.66 31.93 186.71 31.96ZM55.67 31.68Q56.32 32.32 57.96 32.32Q58.48 32.32 58.99 32.24Q60.12 32.06 61.19 31.5Q62.09 31.02 62.9 30.42Q63.49 29.98 64.03 29.48Q65.31 28.27 66.11 27.15Q66.4 26.71 66.4 26.52Q66.4 26.43 66.37 26.36Q66.34 26.29 66.28 26.23Q65.75 26.92 64.77 27.94Q63.8 28.96 62.64 29.84Q61.47 30.72 60.27 31.12Q59.75 31.27 59.32 31.36Q58.88 31.44 58.55 31.44Q57.82 31.44 57.48 31.07Q57.44 31.04 57.41 31Q57.4 30.99 57.4 30.98Q57.08 30.55 57.08 29.88Q57.08 29.32 57.23 28.64Q57.39 27.95 57.67 27.24Q58.4 27.24 59.2 27.08Q60 26.92 60.59 26.75Q61.59 26.44 62.67 25.94Q63.76 25.43 64.49 24.63Q64.69 24.42 64.83 24.17Q65.23 23.5 65.23 22.59Q65.23 22.17 65.08 21.82Q64.98 21.61 64.83 21.42Q64.83 21.42 64.83 21.41Q64.43 20.91 63.4 20.91Q62.2 20.91 60.92 21.63Q60.76 21.72 60.61 21.81Q59.51 22.48 58.55 23.4Q57.48 24.44 56.83 25.39Q56.28 26.31 55.65 27.64Q55.04 28.96 55.04 30.11Q55.04 30.61 55.23 31.04Q55.38 31.39 55.67 31.68ZM126.53 31Q125.88 31.4 125.31 31.4Q125.05 31.4 124.88 31.28Q124.68 31.14 124.6 30.83Q124.55 30.68 124.53 30.54Q124.51 30.39 124.51 30.24Q124.51 29.19 125.11 27.95Q125.71 26.71 126.24 25.79Q127.16 24.15 128.52 22.76Q128.88 22.4 129.61 21.96Q130.35 21.52 130.88 21.52Q131.08 21.52 131.22 21.61Q131.51 21.81 131.51 22.43Q131.51 23.6 130.95 24.91Q130.39 26.23 129.83 27.19Q129.36 27.99 128.79 28.77Q128.52 29.14 128.23 29.49Q127.91 29.88 127.56 30.24Q127.2 30.6 126.53 31ZM28.89 26.42Q28.23 26.48 27.72 26.44Q28.12 25.56 28.79 24.44Q29.47 23.31 30.39 22.45Q30.98 21.9 31.68 21.7Q32.06 21.59 32.47 21.59Q32.76 21.59 32.94 21.73Q33.04 21.81 33.11 21.92Q33.31 22.24 33.31 22.72Q33.31 23.56 32.57 24.62Q31.84 25.68 30.2 26.16Q29.72 26.3 29.23 26.37Q29.06 26.4 28.89 26.42ZM59.17 26.42Q58.51 26.48 58 26.44Q58.4 25.56 59.07 24.44Q59.75 23.31 60.67 22.45Q61.26 21.9 61.96 21.7Q62.34 21.59 62.75 21.59Q63.04 21.59 63.22 21.73Q63.32 21.81 63.39 21.92Q63.59 22.24 63.59 22.72Q63.59 23.56 62.85 24.62Q62.12 25.68 60.48 26.16Q60 26.3 59.51 26.37Q59.34 26.4 59.17 26.42ZM99.97 26.42Q99.31 26.48 98.8 26.44Q99.2 25.56 99.87 24.44Q100.55 23.31 101.47 22.45Q102.06 21.9 102.76 21.7Q103.14 21.59 103.55 21.59Q103.84 21.59 104.02 21.73Q104.12 21.81 104.19 21.92Q104.39 22.24 104.39 22.72Q104.39 23.56 103.65 24.62Q102.92 25.68 101.28 26.16Q100.8 26.3 100.31 26.37Q100.14 26.4 99.97 26.42ZM163.29 30.02Q162.43 30.72 161.96 30.72Q161.86 30.72 161.79 30.67Q161.63 30.57 161.63 30.24Q161.63 29.59 162.07 28.56Q162.51 27.51 163.15 26.4Q163.79 25.28 164.46 24.34Q165.12 23.39 165.6 22.95Q166.04 22.51 166.77 22.05Q167.51 21.59 168.16 21.59Q168.56 21.59 168.81 21.76Q168.86 21.79 168.89 21.82Q169.08 21.99 169.08 22.36Q169.08 22.87 168.49 23.86Q167.91 24.84 167.03 26.02Q166.58 26.62 166.09 27.2Q165.63 27.74 165.15 28.25Q164.15 29.32 163.29 30.02Z" fill="#000000" fill-opacity="1.000000" fill-rule="evenodd"/>
	<line id="Line 1" x1="0.000000" y1="49.500000" x2="200.000000" y2="49.500000" stroke="#FCAC45" stroke-opacity="1.000000" stroke-width="1.000000"/>
</svg>
