<svg width="28.000000" height="28.000000" viewBox="0 0 28 28" fill="none" xmlns="http://www.w3.org/2000/svg" xmlns:xlink="http://www.w3.org/1999/xlink">
	<desc>
			Created with Pixso.
	</desc>
	<defs/>
	<path id="Vector" d="M6.56 0L21.43 0C25.06 0 28 2.93 28 6.56L28 21.43C28 25.06 25.06 28 21.43 28L6.56 28C2.93 28 0 25.06 0 21.43L0 6.56C0 2.93 2.93 0 6.56 0Z" fill="#FFFFFF" fill-opacity="1.000000" fill-rule="evenodd"/>
	<path id="Vector" d="M6.56 0L21.43 0C25.06 0 28 2.93 28 6.56L28 21.43C28 25.06 25.06 28 21.43 28L6.56 28C2.93 28 0 25.06 0 21.43L0 6.56C0 2.93 2.93 0 6.56 0Z" fill="#000000" fill-opacity="1.000000" fill-rule="evenodd"/>
	<path id="Vector" d="M21.82 9.99C21.84 10.17 21.84 10.34 21.84 10.52C21.84 15.85 17.77 22.01 10.34 22.01L10.34 22C8.15 22.01 6 21.38 4.15 20.19C4.47 20.23 4.79 20.25 5.11 20.25C6.93 20.25 8.7 19.64 10.13 18.52C9.29 18.5 8.47 18.23 7.79 17.72C7.12 17.22 6.61 16.52 6.36 15.72C6.96 15.83 7.58 15.81 8.18 15.65C6.29 15.26 4.94 13.61 4.94 11.69L4.94 11.64C5.5 11.95 6.13 12.12 6.77 12.14C5 10.95 4.45 8.59 5.52 6.75C6.54 8 7.8 9.02 9.24 9.74C10.67 10.47 12.24 10.89 13.85 10.97C13.69 10.28 13.71 9.56 13.92 8.88C14.12 8.2 14.5 7.59 15.02 7.11C16.64 5.58 19.2 5.66 20.73 7.28C21.63 7.1 22.5 6.77 23.29 6.3C22.99 7.24 22.36 8.03 21.52 8.54C22.32 8.44 23.1 8.23 23.84 7.9C23.3 8.71 22.61 9.42 21.82 9.99Z" fill="#FFFFFF" fill-opacity="1.000000" fill-rule="nonzero"/>
</svg>
